HIERARCHY
ROOT hip
{
  OFFSET 0 0 0
  CHANNELS 6 Xposition Yposition Zposition Zrotation Yrotation Xrotation
  JOINT abdomen
  {
    OFFSET 0 20.6881 -0.73152
    CHANNELS 3 Zrotation Xrotation Yrotation
    JOINT chest
    {
      OFFSET 0 11.7043 -0.48768
      CHANNELS 3 Zrotation Xrotation Yrotation
      JOINT neck
      {
        OFFSET 0 22.1894 -2.19456
        CHANNELS 3 Zrotation Xrotation Yrotation
        JOINT head
        {
          OFFSET -0.24384 7.07133 1.2192
          CHANNELS 3 Zrotation Xrotation Yrotation
          JOINT leftEye
          {
            OFFSET 4.14528 8.04674 8.04672
            CHANNELS 3 Zrotation Xrotation Yrotation
            End Site
            {
              OFFSET 1 0 0
            }
          }
          JOINT rightEye
          {
            OFFSET -3.6576 8.04674 8.04672
            CHANNELS 3 Zrotation Xrotation Yrotation
            End Site
            {
              OFFSET 1 0 0
            }
          }
        }
      }
      JOINT rCollar
      {
        OFFSET -2.68224 19.2634 -4.8768
        CHANNELS 3 Zrotation Xrotation Yrotation
        JOINT rShldr
        {
          OFFSET -8.77824 -1.95073 1.46304
          CHANNELS 3 Zrotation Xrotation Yrotation
          JOINT rForeArm
          {
            OFFSET -28.1742 -1.7115 0.48768
            CHANNELS 3 Zrotation Xrotation Yrotation
            JOINT rHand
            {
              OFFSET -22.5879 0.773209 7.07136
              CHANNELS 3 Zrotation Xrotation Yrotation
              JOINT rThumb1
              {
                OFFSET -1.2192 -0.487915 3.41376
                CHANNELS 3 Zrotation Xrotation Yrotation
                JOINT rThumb2
                {
                  OFFSET -3.37035 -0.52449 3.41376
                  CHANNELS 3 Zrotation Xrotation Yrotation
                  End Site
                  {
                    OFFSET -1.78271 -1.18214 1.43049
                  }
                }
              }
              JOINT rIndex1
              {
                OFFSET -7.75947 0.938293 5.60832
                CHANNELS 3 Zrotation Xrotation Yrotation
                JOINT rIndex2
                {
                  OFFSET -2.54057 -0.884171 1.56538
                  CHANNELS 3 Zrotation Xrotation Yrotation
                  End Site
                  {
                    OFFSET -1.62519 -0.234802 1.16502
                  }
                }
              }
              JOINT rMid1
              {
                OFFSET -8.24714 1.18213 3.41376
                CHANNELS 3 Zrotation Xrotation Yrotation
                JOINT rMid2
                {
                  OFFSET -3.10165 -0.590103 1.0647
                  CHANNELS 3 Zrotation Xrotation Yrotation
                  End Site
                  {
                    OFFSET -2.48547 -0.328903 0.83742
                  }
                }
              }
              JOINT rRing1
              {
                OFFSET -8.82822 0.546677 1.51678
                CHANNELS 3 Zrotation Xrotation Yrotation
                JOINT rRing2
                {
                  OFFSET -2.60934 -0.819778 -0.0198488
                  CHANNELS 3 Zrotation Xrotation Yrotation
                  End Site
                  {
                    OFFSET -2.33842 -0.294052 0.168128
                  }
                }
              }
              JOINT rPinky1
              {
                OFFSET -8.27202 -0.0477905 -0.4584
                CHANNELS 3 Zrotation Xrotation Yrotation
                JOINT rPinky2
                {
                  OFFSET -1.82734 -0.647385 -0.700984
                  CHANNELS 3 Zrotation Xrotation Yrotation
                  End Site
                  {
                    OFFSET -1.69225 -0.51767 -0.607171
                  }
                }
              }
            }
          }
        }
      }
      JOINT lCollar
      {
        OFFSET 2.68224 19.2634 -4.8768
        CHANNELS 3 Zrotation Xrotation Yrotation
        JOINT lShldr
        {
          OFFSET 8.77824 -1.95073 1.46304
          CHANNELS 3 Zrotation Xrotation Yrotation
          JOINT lForeArm
          {
            OFFSET 28.1742 -1.7115 0.48768
            CHANNELS 3 Zrotation Xrotation Yrotation
            JOINT lHand
            {
              OFFSET 22.5879 0.773209 7.07136
              CHANNELS 3 Zrotation Xrotation Yrotation
              JOINT lThumb1
              {
                OFFSET 1.2192 -0.487915 3.41376
                CHANNELS 3 Zrotation Xrotation Yrotation
                JOINT lThumb2
                {
                  OFFSET 3.37035 -0.52449 3.41376
                  CHANNELS 3 Zrotation Xrotation Yrotation
                  End Site
                  {
                    OFFSET 1.78271 -1.18214 1.43049
                  }
                }
              }
              JOINT lIndex1
              {
                OFFSET 7.75947 0.938293 5.60832
                CHANNELS 3 Zrotation Xrotation Yrotation
                JOINT lIndex2
                {
                  OFFSET 2.54057 -0.884171 1.56538
                  CHANNELS 3 Zrotation Xrotation Yrotation
                  End Site
                  {
                    OFFSET 1.62519 -0.234802 1.16502
                  }
                }
              }
              JOINT lMid1
              {
                OFFSET 8.24714 1.18213 3.41376
                CHANNELS 3 Zrotation Xrotation Yrotation
                JOINT lMid2
                {
                  OFFSET 3.10165 -0.590103 1.0647
                  CHANNELS 3 Zrotation Xrotation Yrotation
                  End Site
                  {
                    OFFSET 2.48547 -0.328903 0.83742
                  }
                }
              }
              JOINT lRing1
              {
                OFFSET 8.82822 0.546677 1.51678
                CHANNELS 3 Zrotation Xrotation Yrotation
                JOINT lRing2
                {
                  OFFSET 2.60934 -0.819778 -0.0198488
                  CHANNELS 3 Zrotation Xrotation Yrotation
                  End Site
                  {
                    OFFSET 2.33842 -0.294052 0.168128
                  }
                }
              }
              JOINT lPinky1
              {
                OFFSET 8.27202 -0.0477905 -0.4584
                CHANNELS 3 Zrotation Xrotation Yrotation
                JOINT lPinky2
                {
                  OFFSET 1.82734 -0.647385 -0.700984
                  CHANNELS 3 Zrotation Xrotation Yrotation
                  End Site
                  {
                    OFFSET 1.69225 -0.51767 -0.607171
                  }
                }
              }
            }
          }
        }
      }
    }
  }
  JOINT rButtock
  {
    OFFSET -8.77824 4.35084 1.2192
    CHANNELS 3 Zrotation Xrotation Yrotation
    JOINT rThigh
    {
      OFFSET 0 -1.70687 -2.19456
      CHANNELS 3 Zrotation Xrotation Yrotation
      JOINT rShin
      {
        OFFSET 0 -36.8199 0.73152
        CHANNELS 3 Zrotation Xrotation Yrotation
        JOINT rFoot
        {
          OFFSET 0.73152 -45.1104 -5.12064
          CHANNELS 3 Zrotation Xrotation Yrotation
          End Site
          {
            OFFSET -1.1221 -3.69964 12.103
          }
        }
      }
    }
  }
  JOINT lButtock
  {
    OFFSET 8.77824 4.35084 1.2192
    CHANNELS 3 Zrotation Xrotation Yrotation
    JOINT lThigh
    {
      OFFSET 0 -1.70687 -2.19456
      CHANNELS 3 Zrotation Xrotation Yrotation
      JOINT lShin
      {
        OFFSET 0 -36.8199 0.73152
        CHANNELS 3 Zrotation Xrotation Yrotation
        JOINT lFoot
        {
          OFFSET -0.73152 -45.1104 -5.12064
          CHANNELS 3 Zrotation Xrotation Yrotation
          End Site
          {
            OFFSET 1.1221 -3.69964 12.103
          }
        }
      }
    }
  }
}
MOTION
Frames:	6
Frame Time:	0.03333
-24.205299999999998 52.825900000000004 -69.26440000000001 168.180005 -48.914616 -158.852502 -12.856526 13.071229 45.261005 -7.843675 -12.548493 -43.452437 -15.40133 26.050679 -87.193607 44.210274 6.684914 51.227093 -0.000313 -0.0 3.2e-05 -0.000172 -0.0 0.002114 4.239286 -44.742756 -8.647803 -130.795445 -8.285065 132.25276 -177.86445 -12.063501 -156.381815 -8.724743 43.170658 4.110217 -172.74533 -10.424053 89.92842 -145.324277 7.636737 74.799958 -166.821553 -43.973562 122.06286 -172.105101 -39.482909 116.008245 -125.644561 49.840544 115.274911 -42.233959 58.375814 36.495623 -145.120382 0.309866 -179.226197 11.793194 26.401678 -5.990468 11.370835 37.937334 9.668156 -23.516312 -39.964705 -23.666158 33.835371 -85.665894 55.252553 15.909178 24.090753 47.64322 64.111018 6.369666 168.571776 -177.353816 -63.743731 -152.517103 2.926227 2.861857 -0.521491 -12.099721 -15.900472 7.120248 -88.793038 -75.497874 -40.051203 -38.852986 -36.670158 3.962826 82.840235 61.110092 -74.532538 -3.185166 0.717267 -0.252804 0.000978 -0.061009 0.018033 151.310908 -72.67714 174.605274 145.170976 12.068336 141.822454 161.125792 52.748577 146.790783 179.999675 75.749484 0.000335 146.760724 -8.149354 102.205002 91.739207 -11.393931 -179.527197 151.166621 3.88195 -56.452862 4e-05 0.000158 -5.1e-05 10.681681 23.613545 70.810258 17.002586 10.090239 144.233235 150.478455 14.850097 179.06546
-24.413999999999998 53.3752 -71.8463 169.848479 -48.319686 -159.213087 -8.48848 8.901926 -136.036175 7.298571 7.800963 138.242575 -1.500415 14.530064 26.660412 -20.039969 -26.410017 -64.662204 -0.00021 0.0 -0.001211 0.000703 0.0 0.004049 -142.314845 40.592889 146.688706 -20.316051 6.434833 -31.143309 -179.626192 -1.063902 -154.654078 -9.917959 45.174716 4.441343 17.490687 -17.282153 -0.030663 -40.087921 30.666861 27.120193 -127.61687 18.963328 107.3284 4.907307 5.151961 -7.4276 174.856494 -64.585923 138.856664 -156.932611 13.421056 140.120038 -145.119247 0.18603 -179.185453 -76.146792 -77.981368 -97.663484 -145.499091 13.104417 -142.109726 -9.601553 -23.319273 -12.08199 9.651772 34.836117 -11.199527 -73.936707 31.202246 -6.247912 165.549009 10.026237 -45.523148 163.726702 6.244385 -141.069546 -83.25387 -50.257585 -33.616417 18.620512 -26.23135 24.112769 -12.216335 -21.784862 5.118265 11.006206 29.658634 -10.09885 39.289199 53.365693 -32.878773 -5.348058 -5.835169 0.598102 -0.004709 1.687323 -0.531516 156.278829 -14.435167 -173.563499 -41.995079 85.993394 2.776748 -1.343263 -0.085332 1.074866 179.992218 75.750686 0.005325 147.34327 -6.100431 99.414573 91.160103 -10.717013 -176.401991 -49.289435 -71.872803 48.099077 0.004398 -0.000641 0.002199 13.145745 24.055746 -14.92039 -2.674503 21.370658 157.269859 -177.832974 55.021382 101.912797
-24.6264 54.0506 -74.7419 171.357443 -47.646701 -159.840183 -7.372714 11.095173 -66.996626 11.889897 -4.783541 70.838757 4.551571 18.410409 65.269699 -37.431521 -5.555076 -100.12768 -0.000341 -0.0 0.000338 0.005329 -0.0 -0.000476 -2.70524 13.654206 3.389593 -176.976315 10.626542 123.710779 -8.93405 -62.770859 -72.638401 147.679598 -46.501357 132.39792 -85.829813 38.631585 47.955102 29.694864 -30.873704 21.338427 -46.209118 39.651658 36.319476 -164.549889 -11.288359 112.145158 -160.673596 -6.667837 143.244946 2.869634 1.019736 0.498061 -31.713356 -66.107633 -46.287188 13.022323 29.791976 0.90147 -135.820398 -11.891707 -133.184848 -20.88669 -36.92961 -22.877012 13.743416 42.431587 -15.56913 -99.565606 -63.595406 -21.063392 -148.77475 -71.745127 -14.863284 154.28515 25.924681 -132.438967 14.734623 13.586047 -3.966748 -0.790041 0.429698 -8.259395 138.763323 4.487792 -115.03229 2.188367 20.218516 4.472327 151.476193 17.841368 -137.538024 176.704578 -42.24714 -142.412681 0.008297 3.559315 -1.117738 -9.681557 4.754512 -0.542016 -12.633472 42.933857 -10.53296 148.632097 13.364645 143.765619 -179.969305 75.748588 -0.023658 150.843025 -3.006906 -84.628541 -89.361778 8.062238 6.421811 -3.835777 -25.318895 63.441001 -0.000866 -6.5e-05 0.001114 12.717889 19.772072 57.446067 28.444868 9.710622 62.118436 -150.737388 -20.639046 95.196465
-25.027 55.09230000000001 -77.9016 173.452627 -47.002797 -161.280293 -9.07593 12.549299 1.61585 2.589664 -13.897877 3.270623 6.693082 23.488135 95.364291 -41.463577 14.467171 -123.081968 0.001838 -0.0 -0.00142 -0.003838 0.0 -0.000651 -0.21773 1.287391 0.288855 -1.914894 -3.09932 56.125518 72.527404 -60.097243 90.087013 -42.693608 73.726525 29.494848 -169.318086 -7.001331 89.923048 179.333309 -17.000792 93.139568 -50.385345 40.826978 40.02464 -169.702145 -19.020299 112.14953 -0.056494 0.168109 0.031629 3.164996 0.193815 -0.00105 -145.119187 0.185412 -179.186561 11.19897 13.760951 -7.374542 -8.192287 -17.575892 -7.728481 -6.323147 -20.512993 -8.23581 29.636597 58.070962 -32.037377 -63.53893 20.590503 -33.821504 177.794348 20.066501 -48.881794 158.79803 18.070887 -136.510269 117.339358 32.015207 -69.454137 105.034593 -6.238206 -60.783928 -33.031103 -53.844084 2.71683 70.558981 51.479682 -58.521615 10.976 25.790182 -7.63835 -18.041985 -42.098323 0.143114 72.756471 -72.143749 89.771987 -14.73169 1.754844 4.35915 23.394505 -36.348227 22.494569 -3.924403 2.080181 -0.358363 0.003511 0.000655 0.003511 -64.892606 -57.179294 26.559526 85.473519 -14.620977 -14.752956 -16.256853 3.881341 -97.67797 -0.0 0.000655 0.00078 16.188349 13.657702 -93.319851 -31.624211 -1.946134 83.259641 -15.397697 -6.711804 38.042629
-25.287100000000002 56.2859 -80.6911 176.217366 -46.145364 -163.432043 -6.418097 8.522252 -142.799306 4.582878 8.164735 148.163017 -0.577997 14.806867 29.96818 -21.564641 -26.698852 -67.457761 0.002728 -0.0 -0.001898 -0.002213 -0.0 0.004118 0.022786 -0.138663 -0.030921 -1.716677 -1.100188 56.388104 71.350067 -59.527835 89.188051 -41.459306 73.024455 28.171925 3.050379 -3.032747 -0.389351 -141.71304 -48.220505 122.01137 -140.762927 1.380285 116.228728 -33.941364 49.544196 19.436912 -160.097162 -4.901292 142.969047 86.523464 -77.968229 57.789326 -69.297314 72.94696 87.01675 -159.834486 -0.818991 176.283938 12.252837 41.42495 10.279237 -85.713364 -53.660559 -84.495112 81.46998 68.343405 -84.578795 100.934754 -1.538545 -125.10154 1.100252 -1.992761 129.692787 162.674817 10.742902 -139.473124 68.483499 37.952882 -35.659306 -73.782292 -49.638755 -24.437759 -12.215618 -21.784958 5.120371 -12.777079 1.897619 0.994909 -2.099709 -6.30546 1.081803 -13.120411 -30.05276 1.410707 72.131983 72.976682 -89.988546 -5.704525 14.864143 2.578885 -0.464783 1.226224 -0.430648 159.538395 55.551356 150.075538 0.000971 0.000661 -0.001249 -55.170242 -58.644307 120.717558 -121.694291 -83.254711 -116.112554 91.978629 -17.745197 179.421812 -179.999977 75.75138 -1.6e-05 -115.977665 73.179258 25.37035 54.85513 -4.980525 -7.633329 22.039617 -36.53854 -80.149915
-25.689899999999998 56.901999999999994 -83.7044 179.463934 -44.463622 -165.927723 -4.716744 8.643411 -151.23233 2.851835 8.241177 158.398434 -14.84248 26.214717 -88.581097 45.751306 9.717181 53.328659 0.00184 -0.0 -0.002039 0.00184 -0.0 -0.002039 -13.743695 42.431591 15.568999 117.396745 -40.693131 135.199139 170.607608 -31.206239 107.956978 163.009807 -23.954904 143.72128 -171.604314 -9.285923 89.949551 -53.396218 -10.205615 11.450638 -28.902238 31.615694 21.338164 -177.672805 -30.583176 108.786395 -164.101052 -17.547108 144.577643 86.507974 -77.975434 57.823816 -145.118989 0.185349 -179.18684 -144.944667 -51.033713 -167.225155 -148.069142 21.784917 -144.327477 -80.812502 -52.58006 -80.133706 3.767432 17.921103 -4.640663 -115.8239 79.890474 40.771969 8.339215 -54.235324 -87.127037 8.713145 -28.756742 7.027453 173.009125 -10.685286 -89.92142 77.863841 6.369939 -25.542019 140.762684 1.381195 -116.230438 161.130269 -11.074851 -119.026564 151.474856 17.841267 -137.538417 -3.522486 -0.60298 -0.260558 -0.00021 0.063638 -0.020934 -7.019986 29.09171 -4.543422 112.779638 -40.022538 110.810347 -12.078836 26.503466 -4.696512 0.0 -0.000738 0.000965 -40.551152 -57.502305 -45.411839 61.232095 74.108198 30.18504 -72.75881 -39.10508 -154.427843 -0.003887 -0.000144 -0.003887 17.364573 -2.302536 1.07542 21.238664 68.654497 43.830218 -131.935175 13.882662 57.220843
